Coordinates
version=1
nRows=7
nColumns=46
inDegrees=yes

Units are S.I. units (second, meters, Newtons, ...)
Angles are in degrees.

endheader
time	pelvis_tilt	pelvis_list	pelvis_rotation	pelvis_tx	pelvis_ty	pelvis_tz	bb_angle	bb_tx	bb_ty	bb_tz	hip_flexion_r	hip_adduction_r	hip_rotation_r	knee_angle_r	knee_angle_r_beta	ankle_angle_r	subtalar_angle_r	mtp_angle_r	crank_angle_r	hip_flexion_l	hip_adduction_l	hip_rotation_l	knee_angle_l	knee_angle_l_beta	ankle_angle_l	subtalar_angle_l	mtp_angle_l	crank_angle_l	lumbar_extension	lumbar_bending	lumbar_rotation	arm_flex_r	arm_add_r	arm_rot_r	elbow_flex_r	pro_sup_r	wrist_flex_r	wrist_dev_r	arm_flex_l	arm_add_l	arm_rot_l	elbow_flex_l	pro_sup_l	wrist_flex_l	wrist_dev_l
      0.00000000	     -5.83633563	     -3.65124678	     -1.72479568	      0.05287711	      1.16748196	     -0.23721565	      0.00000000	      0.50000000	      0.00000000	      0.25000000	     77.11604760	     -0.64958112	     -0.69441921	     92.36836400	      1.61213208	     -1.84158505	    -10.45305514	      0.00000000	      0.00000000	     35.40858967	     -8.03062500	      1.06027288	     59.01270098	      1.02996593	      2.19855219	     -8.91833826	      0.00000000	      0.00000000	    -58.49359951	      2.00426050	      2.76018335	     89.68467766	     -3.72349590	     54.38866718	     23.34948478	     23.41114730	      0.00000000	      0.00000000	     89.57938293	     -6.88433575	     58.10231208	     15.53728689	     23.24317661	      0.00000000	      0.00000000
      0.00500000	     -5.83991076	     -3.68142250	     -1.72000122	      0.05290681	      1.16749829	     -0.23725059	      0.00000000	      0.50000000	      0.00000000	      0.25000000	     77.13226522	     -0.65162933	     -0.73063666	     92.39092722	      1.61252588	     -1.92003344	    -10.48341036	      0.00000000	      0.00000000	     35.39948793	     -8.06355889	      1.07329542	     58.98071969	      1.02940775	      2.24566670	     -8.85809398	      0.00000000	      0.00000000	    -58.48370797	      2.06013811	      2.74803393	     89.68477376	     -3.48307278	     53.79982154	     22.88007480	     24.60934544	      0.00000000	      0.00000000	     89.58251256	     -7.08588431	     58.95438400	     15.24866704	     24.62117525	      0.00000000	      0.00000000
      0.01000000	     -5.86482797	     -3.69614995	     -1.74430155	      0.05294780	      1.16747833	     -0.23726467	      0.00000000	      0.50000000	      0.00000000	      0.25000000	     77.18430247	     -0.61645879	     -0.73084376	     92.41770416	      1.61299322	     -2.01143057	    -10.52436332	      0.00000000	      0.00000000	     35.40450690	     -8.09777400	      1.05448681	     58.94862505	      1.02884760	      2.34566958	     -8.69428647	      0.00000000	      0.00000000	    -58.49808318	      2.01592769	      2.87704084	     89.68210666	     -3.49345297	     53.04788683	     22.75611032	     24.91414629	      0.00000000	      0.00000000	     89.55541714	     -6.32138662	     54.81719904	     15.31015247	     24.28715182	      0.00000000	      0.00000000
      0.01500000	     -5.85691321	     -3.71983754	     -1.76548963	      0.05306142	      1.16745475	     -0.23721830	      0.00000000	      0.50000000	      0.00000000	      0.25000000	     77.18901497	     -0.58446021	     -0.71421330	     92.47395105	      1.61397492	     -1.81582695	    -10.40581323	      0.00000000	      0.00000000	     35.36299617	     -8.12053591	      1.05393900	     58.90867447	      1.02815033	      2.28929533	     -8.80011710	      0.00000000	      0.00000000	    -58.50425000	      2.10050722	      2.66006330	     89.69358329	     -3.57041106	     54.58617767	     22.92486606	     25.84017738	      0.00000000	      0.00000000	     89.55772653	     -7.10611131	     59.20361693	     15.31234758	     26.05181353	      0.00000000	      0.00000000
      0.02000000	     -5.79781554	     -3.92716529	     -2.07330137	      0.05373606	      1.16667341	     -0.23600881	      0.00000000	      0.50000000	      0.00000000	      0.25000000	     77.24812644	     -0.25860098	     -0.82703593	     92.52586938	      1.61488106	     -1.98985858	     -9.98246966	      0.00000000	      0.00000000	     35.32206575	     -8.16035284	      1.57899330	     59.01130267	      1.02994153	      2.58154538	     -7.83795152	      0.00000000	      0.00000000	    -58.53642803	      1.96823513	      2.70370579	     89.68452011	     -3.13234740	     54.22332979	     22.83138662	     25.65462612	      0.00000000	      0.00000000	     89.55007204	     -6.27851318	     59.32750202	     13.84909331	     25.69137490	      0.00000000	      0.00000000
      0.02500000	     -5.89720423	     -3.72961065	     -1.81664564	      0.05304643	      1.16745014	     -0.23732688	      0.00000000	      0.50000000	      0.00000000	      0.25000000	     77.27906884	     -0.52276429	     -0.68003035	     92.53404428	      1.61502374	     -1.91546097	    -10.44592662	      0.00000000	      0.00000000	     35.36414689	     -8.16725119	      0.99676489	     58.84444819	      1.02702937	      2.34431429	     -8.70627464	      0.00000000	      0.00000000	    -58.39383641	      2.03780313	      2.90430520	     89.68034410	     -3.66445629	     54.07807379	     22.74434732	     25.57185731	      0.00000000	      0.00000000	     89.58872811	     -6.77599265	     59.34953356	     14.34130373	     25.70975339	      0.00000000	      0.00000000
      0.03000000	     -5.83519610	     -3.69842282	     -1.77461545	      0.05302651	      1.16762811	     -0.23744647	      0.00000000	      0.50000000	      0.00000000	      0.25000000	     77.23074999	     -0.60260971	     -0.65626946	     92.55258699	      1.61534737	     -1.91187151	    -10.34101962	      0.00000000	      0.00000000	     35.25522388	     -8.08566225	      1.01129993	     58.73779674	      1.02516795	      2.30814776	     -8.80868152	      0.00000000	      0.00000000	    -58.54511124	      2.05480169	      2.68478679	     89.68258334	     -3.18803432	     52.44385002	     22.32135966	     27.36587013	      0.00000000	      0.00000000	     89.55467953	     -6.89062894	     55.67511594	     15.06253671	     27.36818016	      0.00000000	      0.00000000
